<svg width="52" height="52" viewBox="0 0 52 52" fill="none" xmlns="http://www.w3.org/2000/svg">
<path d="M26.0869 4.33314C14.2569 4.33314 4.61523 13.9748 4.61523 25.8048C4.61523 29.5965 5.61189 33.2798 7.47523 36.5298L4.44189 47.6665L15.8169 44.6765C18.9586 46.3881 22.4902 47.2981 26.0869 47.2981C37.9169 47.2981 47.5586 37.6565 47.5586 25.8265C47.5586 20.0848 45.3269 14.6898 41.2752 10.6381C39.2888 8.63164 36.9228 7.04075 34.3151 5.95825C31.7074 4.87574 28.9103 4.3233 26.0869 4.33314ZM26.1086 7.95147C30.8752 7.95147 35.3386 9.8148 38.7186 13.1948C40.3774 14.8531 41.6925 16.8225 42.5886 18.9901C43.4846 21.1577 43.944 23.4809 43.9402 25.8265C43.9402 35.6631 35.9236 43.6581 26.0869 43.6581C22.8802 43.6581 19.7386 42.8131 17.0086 41.1665L16.3586 40.7981L9.59856 42.5748L11.3969 35.9881L10.9636 35.2948C9.17377 32.4536 8.22709 29.1628 8.23356 25.8048C8.25523 15.9681 16.2502 7.95147 26.1086 7.95147ZM18.4819 15.8815C18.1352 15.8815 17.5502 16.0115 17.0519 16.5531C16.5752 17.0948 15.1669 18.4165 15.1669 21.0381C15.1669 23.6815 17.0952 26.2165 17.3336 26.5848C17.6369 26.9531 21.1469 32.3698 26.5419 34.6665C27.8202 35.2515 28.8169 35.5765 29.5969 35.8148C30.8752 36.2265 32.0452 36.1615 32.9769 36.0315C34.0169 35.8798 36.1402 34.7315 36.5952 33.4748C37.0502 32.2181 37.0502 31.1565 36.9202 30.9181C36.7686 30.7015 36.4219 30.5715 35.8802 30.3331C35.3386 30.0298 32.6952 28.7298 32.2186 28.5565C31.7202 28.3831 31.4169 28.2965 31.0052 28.8165C30.6586 29.3581 29.6186 30.5715 29.3152 30.9181C28.9902 31.2865 28.6869 31.3298 28.1669 31.0698C27.6036 30.7881 25.8702 30.2248 23.8336 28.4048C22.2302 26.9748 21.1686 25.2198 20.8436 24.6781C20.5836 24.1581 20.8219 23.8331 21.0819 23.5948C21.3202 23.3565 21.6669 22.9665 21.8836 22.6415C22.1652 22.3381 22.2519 22.0998 22.4252 21.7531C22.5986 21.3848 22.5119 21.0815 22.3819 20.8215C22.2519 20.5831 21.1686 17.8965 20.7136 16.8348C20.2802 15.7948 19.8469 15.9248 19.5002 15.9031C19.1969 15.9031 18.8502 15.8815 18.4819 15.8815Z" fill="white"/>
</svg>
