<svg width="52" height="52" viewBox="0 0 52 52" fill="none" xmlns="http://www.w3.org/2000/svg">
<path d="M46.592 39.8256H41.6477C39.7778 39.8256 39.2145 38.3111 35.8627 34.9571C32.9333 32.1339 31.6962 31.7829 30.9552 31.7829C29.9303 31.7829 29.6508 32.0646 29.6508 33.4751V37.9211C29.6508 39.1236 29.2608 39.8277 26.1192 39.8277C23.0713 39.623 20.1157 38.6971 17.4958 37.1262C14.8758 35.5554 12.6666 33.3847 11.05 30.7927C7.2115 26.0153 4.5407 20.4081 3.25 14.4171C3.25 13.6761 3.53167 13.0044 4.94433 13.0044H9.88433C11.154 13.0044 11.6112 13.5699 12.1095 14.8764C14.508 21.9354 18.6008 28.0757 20.2627 28.0757C20.8997 28.0757 21.177 27.7941 21.177 26.2059V18.9346C20.9668 15.6174 19.2053 15.3379 19.2053 14.1376C19.2276 13.8209 19.3725 13.5254 19.6091 13.3138C19.8458 13.1022 20.1556 12.9912 20.4728 13.0044H28.2382C29.2998 13.0044 29.6508 13.5331 29.6508 14.8027V24.6177C29.6508 25.6772 30.1058 26.0282 30.4265 26.0282C31.0635 26.0282 31.5532 25.6772 32.721 24.5116C35.2243 21.4587 37.2694 18.0574 38.792 14.4149C38.9478 13.9776 39.2425 13.6032 39.6309 13.3489C40.0194 13.0947 40.4803 12.9744 40.9435 13.0066H45.8857C47.3677 13.0066 47.6818 13.7476 47.3677 14.8049C45.5701 18.8315 43.346 22.6537 40.7333 26.2059C40.2003 27.0184 39.988 27.4409 40.7333 28.3942C41.223 29.1352 42.9563 30.5826 44.1198 31.9584C45.8142 33.6484 47.2203 35.6027 48.2842 37.7434C48.7088 39.1214 48.0025 39.8256 46.592 39.8256Z" fill="white"/>
</svg>
