<svg width="301" height="45" viewBox="0 0 301 45" fill="none" xmlns="http://www.w3.org/2000/svg">
<path d="M22.5 0L27.5516 15.5471H43.8988L30.6736 25.1558L35.7252 40.7029L22.5 31.0942L9.27483 40.7029L14.3264 25.1558L1.10123 15.5471H17.4484L22.5 0Z" fill="#F7F199"/>
<path d="M86.5 0L91.5516 15.5471H107.899L94.6736 25.1558L99.7252 40.7029L86.5 31.0942L73.2748 40.7029L78.3264 25.1558L65.1012 15.5471H81.4484L86.5 0Z" fill="#F7F199"/>
<path d="M150.5 0L155.552 15.5471H171.899L158.674 25.1558L163.725 40.7029L150.5 31.0942L137.275 40.7029L142.326 25.1558L129.101 15.5471H145.448L150.5 0Z" fill="#F7F199"/>
<path d="M214.5 0L219.552 15.5471H235.899L222.674 25.1558L227.725 40.7029L214.5 31.0942L201.275 40.7029L206.326 25.1558L193.101 15.5471H209.448L214.5 0Z" fill="#F7F199"/>
<path d="M278.5 0L283.552 15.5471H299.899L286.674 25.1558L291.725 40.7029L278.5 31.0942L265.275 40.7029L270.326 25.1558L257.101 15.5471H273.448L278.5 0Z" fill="#F7F199"/>
</svg>
